<svg xmlns="http://www.w3.org/2000/svg" xmlns:xlink="http://www.w3.org/1999/xlink" width="500" zoomAndPan="magnify" viewBox="0 0 375 374.999991" height="500" preserveAspectRatio="xMidYMid meet" version="1.0"><defs><clipPath id="224994781d"><path d="M 75 0 L 300 0 C 341.421875 0 375 33.578125 375 75 L 375 300 C 375 341.421875 341.421875 375 300 375 L 75 375 C 33.578125 375 0 341.421875 0 300 L 0 75 C 0 33.578125 33.578125 0 75 0 Z M 75 0 " clip-rule="nonzero"/></clipPath><clipPath id="cc18acc1f5"><path d="M 0 0 L 375 0 L 375 375 L 0 375 Z M 0 0 " clip-rule="nonzero"/></clipPath><clipPath id="1d36456d3c"><path d="M 75 0 L 300 0 C 341.421875 0 375 33.578125 375 75 L 375 300 C 375 341.421875 341.421875 375 300 375 L 75 375 C 33.578125 375 0 341.421875 0 300 L 0 75 C 0 33.578125 33.578125 0 75 0 Z M 75 0 " clip-rule="nonzero"/></clipPath><clipPath id="e48f833b55"><rect x="0" width="375" y="0" height="375"/></clipPath><clipPath id="11f5729883"><path d="M 91.945312 33.378906 L 228 33.378906 L 228 170 L 91.945312 170 Z M 91.945312 33.378906 " clip-rule="nonzero"/></clipPath><clipPath id="2fe884b780"><path d="M 91.945312 150 L 283.195312 150 L 283.195312 341.628906 L 91.945312 341.628906 Z M 91.945312 150 " clip-rule="nonzero"/></clipPath></defs><rect x="-37.5" width="450" fill="#ffffff" y="-37.499999" height="449.999989" fill-opacity="1"/><rect x="-37.5" width="450" fill="#ffffff" y="-37.499999" height="449.999989" fill-opacity="1"/><g clip-path="url(#224994781d)"><g transform="matrix(1, 0, 0, 1, 0, 0)"><g clip-path="url(#e48f833b55)"><g clip-path="url(#cc18acc1f5)"><g clip-path="url(#1d36456d3c)"><rect x="-82.5" width="540" fill="#5e17eb" height="539.999987" y="-82.499998" fill-opacity="1"/></g></g></g></g></g><g clip-path="url(#11f5729883)"><path fill="#ffffff" d="M 187.496094 125.839844 C 201.507812 126.222656 215.011719 128.257812 227.5625 132.71875 L 227.5625 131.507812 C 227.5625 77.300781 183.609375 33.410156 129.464844 33.410156 L 91.945312 33.410156 L 91.945312 169.027344 C 91.945312 169.027344 130.355469 124.246094 187.496094 125.839844 Z M 187.496094 125.839844 " fill-opacity="1" fill-rule="nonzero"/></g><g clip-path="url(#2fe884b780)"><path fill="#ffffff" d="M 187.496094 150.492188 C 134.75 150.492188 91.945312 193.234375 91.945312 246.039062 L 91.945312 341.589844 L 187.496094 341.589844 C 240.238281 341.589844 283.042969 298.847656 283.042969 246.039062 C 282.980469 193.296875 240.238281 150.492188 187.496094 150.492188 Z M 187.496094 150.492188 " fill-opacity="1" fill-rule="nonzero"/></g></svg>