<svg xmlns="http://www.w3.org/2000/svg" xmlns:xlink="http://www.w3.org/1999/xlink" width="500" zoomAndPan="magnify" viewBox="0 0 375 374.999991" height="500" preserveAspectRatio="xMidYMid meet" version="1.0"><defs><clipPath id="4fec9cb64a"><path d="M 71.25 0 L 237 0 L 237 166 L 71.25 166 Z M 71.25 0 " clip-rule="nonzero"/></clipPath><clipPath id="cf9d045a00"><path d="M 71.25 142 L 303.75 142 L 303.75 375 L 71.25 375 Z M 71.25 142 " clip-rule="nonzero"/></clipPath></defs><g clip-path="url(#4fec9cb64a)"><path fill="#ffffff" d="M 187.5 112.480469 C 204.550781 112.945312 220.980469 115.425781 236.246094 120.851562 L 236.246094 119.378906 C 236.246094 53.425781 182.773438 0.0273438 116.898438 0.0273438 L 71.25 0.0273438 L 71.25 165.023438 C 71.25 165.023438 117.984375 110.542969 187.5 112.480469 Z M 187.5 112.480469 " fill-opacity="1" fill-rule="nonzero"/></g><g clip-path="url(#cf9d045a00)"><path fill="#ffffff" d="M 187.5 142.472656 C 123.328125 142.472656 71.25 194.476562 71.25 258.722656 L 71.25 374.972656 L 187.5 374.972656 C 251.671875 374.972656 303.75 322.96875 303.75 258.722656 C 303.671875 194.550781 251.671875 142.472656 187.5 142.472656 Z M 187.5 142.472656 " fill-opacity="1" fill-rule="nonzero"/></g></svg>